<svg xmlns="http://www.w3.org/2000/svg" width="1126.59" height="433.5" viewBox="0 0 1126.59 433.5"><defs><style>.cls-1,.cls-3{fill:#ab321d;}.cls-2{fill:#4f4a47;}.cls-3{stroke:#ab321d;stroke-width:25px;}.cls-3,.cls-4{stroke-miterlimit:10;}.cls-4{fill:#fff;stroke:#fff;stroke-width:15px;}</style></defs><title>babushka_logo</title><g id="Layer_2" data-name="Layer 2"><g id="Layer_2-2" data-name="Layer 2"><ellipse class="cls-1" cx="152.43" cy="214.82" rx="105.5" ry="214"/><path class="cls-2" d="M362.07,193.25V95.63h-9.3a4.71,4.71,0,0,1-3.54-1.12,4.66,4.66,0,0,1,0-5.94,4.75,4.75,0,0,1,3.54-1.12h43.46q12.91,0,21,8.82a29.62,29.62,0,0,1,8.1,20.7q0,15-13.58,24.26,10.79,4.58,15.8,12.18a29.72,29.72,0,0,1,5,16.75,33.7,33.7,0,0,1-3.29,15,30.15,30.15,0,0,1-10.08,11.54,25.18,25.18,0,0,1-14.77,4.77H352.77a4.64,4.64,0,0,1-3.54-1.16,4.2,4.2,0,0,1-1.07-2.93,4.15,4.15,0,0,1,1.07-3,4.75,4.75,0,0,1,3.54-1.12ZM369,138.11h24.45a30.42,30.42,0,0,0,14.32-3.41,19.18,19.18,0,0,0,7.82-7.89,21.91,21.91,0,0,0,2.8-10.52q0-7.7-6.09-14.18t-15.89-6.48H369Zm0,55.14h35a19.51,19.51,0,0,0,11.61-3.51,23,23,0,0,0,7.49-8.67,23.89,23.89,0,0,0,2.55-10.71A22.44,22.44,0,0,0,422,158.28a23.32,23.32,0,0,0-10.17-8.87q-6.5-3-17.94-3H369Z"/><path class="cls-2" d="M404.46,202.93H352.77a6,6,0,0,1-4.65-1.65,6.1,6.1,0,0,1,0-7.94,6.14,6.14,0,0,1,4.63-1.59h7.8V97.13h-7.8a6.16,6.16,0,0,1-4.63-1.58,6.16,6.16,0,0,1,0-8A6.14,6.14,0,0,1,352.77,86h43.46c9,0,16.45,3.13,22.13,9.3a31.21,31.21,0,0,1,8.5,21.72c0,9.67-4.07,17.71-12.11,24,6.24,3,11,6.94,14.09,11.65a31.41,31.41,0,0,1,5.26,17.58,35.31,35.31,0,0,1-3.44,15.61,31.84,31.84,0,0,1-10.57,12.12A26.71,26.71,0,0,1,404.46,202.93Zm-51.69-8.18a3.48,3.48,0,0,0-2.46.66,3.1,3.1,0,0,0,0,3.84,3.45,3.45,0,0,0,2.43.68h51.69a23.78,23.78,0,0,0,13.91-4.5,28.82,28.82,0,0,0,9.59-11,32.35,32.35,0,0,0,3.14-14.3,28.38,28.38,0,0,0-4.77-15.93c-3.16-4.79-8.26-8.7-15.13-11.62l-2.53-1.08,2.27-1.54c8.7-5.93,12.92-13.46,12.92-23a28.27,28.27,0,0,0-7.71-19.69C411,91.68,404.48,89,396.23,89H352.77a3.48,3.48,0,0,0-2.46.66,3.21,3.21,0,0,0,0,3.87,3.49,3.49,0,0,0,2.46.65h10.8V194.75Zm51.19,0H367.48V144.89h26.36c7.81,0,14.06,1.06,18.57,3.16a24.83,24.83,0,0,1,10.81,9.43,24,24,0,0,1,3.89,12.88,25.49,25.49,0,0,1-2.71,11.38,24.69,24.69,0,0,1-8,9.23A21.11,21.11,0,0,1,404,194.75Zm-33.48-3H404a18.17,18.17,0,0,0,10.74-3.23,21.68,21.68,0,0,0,7-8.11,22.54,22.54,0,0,0,2.4-10,21.19,21.19,0,0,0-3.43-11.29,22,22,0,0,0-9.53-8.3c-4.12-1.91-9.94-2.88-17.31-2.88H370.48Zm22.95-52.14H367.48V94.13h28.91c6.93,0,12.64,2.34,17,7s6.5,9.7,6.5,15.2a23.52,23.52,0,0,1-3,11.23,20.71,20.71,0,0,1-8.42,8.5A32.13,32.13,0,0,1,393.43,139.61Zm-22.95-3h22.95a29,29,0,0,0,13.62-3.24,17.72,17.72,0,0,0,7.2-7.28,20.4,20.4,0,0,0,2.62-9.8c0-4.78-1.86-9.08-5.69-13.15s-8.64-6-14.79-6H370.48Z"/><path class="cls-2" d="M494.2,117.07v76.18h27.16a4.88,4.88,0,0,1,3.62,1.12,4.15,4.15,0,0,1,1.07,3,4.2,4.2,0,0,1-1.07,2.93,4.76,4.76,0,0,1-3.62,1.16H460.13a4.64,4.64,0,0,1-3.54-1.16,4.15,4.15,0,0,1-1.07-2.93,4.1,4.1,0,0,1,1.07-3,4.75,4.75,0,0,1,3.54-1.12h27.16v-67.9H467.12a4.76,4.76,0,0,1-3.58-1.17,4.07,4.07,0,0,1-1.11-2.92,4.3,4.3,0,0,1,1.07-3,4.72,4.72,0,0,1,3.62-1.17Zm-.25-42V96.22h-10.2V75.08Z"/><path class="cls-2" d="M521.36,202.93H460.13a6,6,0,0,1-4.65-1.65,6.1,6.1,0,0,1,0-7.94,6.11,6.11,0,0,1,4.63-1.59h25.66v-64.9H467.12a6.16,6.16,0,0,1-4.67-1.64,5.53,5.53,0,0,1-1.52-3.95,5.78,5.78,0,0,1,1.46-4,6.15,6.15,0,0,1,4.73-1.65H495.7v76.18h25.66a6.29,6.29,0,0,1,4.71,1.58,6.11,6.11,0,0,1,0,7.95A6.15,6.15,0,0,1,521.36,202.93Zm-61.23-8.18a3.48,3.48,0,0,0-2.46.66,3.12,3.12,0,0,0,0,3.84,3.5,3.5,0,0,0,2.44.68h61.23a3.49,3.49,0,0,0,2.52-.68,2.72,2.72,0,0,0,.67-1.91,2.65,2.65,0,0,0-.65-1.93,3.67,3.67,0,0,0-2.54-.66H492.7V118.57H467.12a3.44,3.44,0,0,0-2.51.68,2.81,2.81,0,0,0-.68,2,2.59,2.59,0,0,0,.7,1.89,3.63,3.63,0,0,0,2.49.7h21.67v70.9Zm35.32-97h-13.2V73.58h13.2Zm-10.2-3h7.2V76.58h-7.2Z"/><path class="cls-2" d="M612.34,122.43a6.71,6.71,0,0,1,1-4.1,3,3,0,0,1,2.46-1.26,3.1,3.1,0,0,1,2.56,1.26,7.14,7.14,0,0,1,1,4.29v14a6.91,6.91,0,0,1-1,4.19,3.1,3.1,0,0,1-2.56,1.26,3,3,0,0,1-2.34-1.07,5.86,5.86,0,0,1-1.11-3.5,13.54,13.54,0,0,0-5.1-9.65q-6.75-5.46-17.87-5.45-11.6,0-18,5.55-4.86,4.19-4.86,9.35,0,5.85,5.77,9.74,3.94,2.73,15,4.19,14.4,1.86,20,4.19,8,3.42,11.89,9.45A23.64,23.64,0,0,1,623,178q0,10.42-8.48,18.55t-24.86,8.14q-16.38,0-26.83-9.84a17,17,0,0,1-.33,4.29,3.45,3.45,0,0,1-1.19,1.65,3.06,3.06,0,0,1-4.4-.58,6.9,6.9,0,0,1-1-4.19V179.13a7.06,7.06,0,0,1,.95-4.19,3,3,0,0,1,2.51-1.27,3.19,3.19,0,0,1,2.51,1.22,4.92,4.92,0,0,1,1,3.26,13.87,13.87,0,0,0,1.89,7.5A21.39,21.39,0,0,0,574,193.4a35.14,35.14,0,0,0,15.44,3.07q13.5,0,20.08-5.95T616.12,178q0-7.61-6.66-12.18t-19.63-6.14q-12.89-1.56-18.48-4.09a19.35,19.35,0,0,1-8.72-7.6A20.35,20.35,0,0,1,559.5,137a19.47,19.47,0,0,1,8.72-16.71q8.73-6.18,20.83-6.19Q603.36,114.14,612.34,122.43Z"/><path class="cls-2" d="M589.7,206.15c-10,0-18.59-2.75-25.44-8.16a7,7,0,0,1-.29,1.58,5,5,0,0,1-1.69,2.36,4.57,4.57,0,0,1-6.52-.84,8.25,8.25,0,0,1-1.3-5.11V179.12A8.45,8.45,0,0,1,555.7,174a4.51,4.51,0,0,1,3.72-1.87,4.66,4.66,0,0,1,3.65,1.75,6.36,6.36,0,0,1,1.39,4.23,12.43,12.43,0,0,0,1.66,6.71,20,20,0,0,0,8.56,7.19A33.79,33.79,0,0,0,589.46,195c8.57,0,15-1.87,19.07-5.56s6.09-7.5,6.09-11.45c0-4.59-2-8.16-6-11-4.28-2.89-10.66-4.88-19-5.88-8.82-1.07-15-2.45-18.92-4.22a20.87,20.87,0,0,1-9.38-8.17A22,22,0,0,1,558,137a21,21,0,0,1,9.35-17.93c6-4.29,13.35-6.47,21.7-6.47,8.77,0,16.19,2.3,22.12,6.84a5.67,5.67,0,0,1,1-2.07,4.51,4.51,0,0,1,3.65-1.84,4.58,4.58,0,0,1,3.74,1.84c.88,1.13,1.3,2.83,1.3,5.21v14a8.16,8.16,0,0,1-1.3,5.11,4.58,4.58,0,0,1-3.74,1.84,4.52,4.52,0,0,1-3.47-1.58,7.16,7.16,0,0,1-1.48-4.4,12,12,0,0,0-4.56-8.58c-4.19-3.39-9.88-5.11-16.91-5.11-7.33,0-13.06,1.74-17,5.18-2.92,2.52-4.34,5.21-4.34,8.22,0,3.4,1.67,6.18,5.11,8.5,2.43,1.68,7.25,3,14.33,3.94,9.83,1.27,16.49,2.67,20.38,4.3,5.59,2.39,9.82,5.75,12.58,10A25.17,25.17,0,0,1,624.54,178c0,7.34-3,13.94-8.94,19.64S601,206.15,589.7,206.15Zm-28.33-14.81,2.53,2.38c6.65,6.26,15.33,9.43,25.8,9.43s18.48-2.6,23.82-7.72,8-11,8-17.47a22.24,22.24,0,0,0-3.67-12.24c-2.43-3.76-6.21-6.74-11.22-8.89-3.58-1.49-10.18-2.87-19.61-4.08-7.66-1-12.78-2.47-15.64-4.44-4.25-2.87-6.41-6.57-6.41-11,0-3.88,1.81-7.41,5.38-10.49,4.54-3.92,10.93-5.91,19-5.91,7.73,0,14.06,1.94,18.81,5.78a15.05,15.05,0,0,1,5.65,10.69,4.57,4.57,0,0,0,.74,2.64,1.52,1.52,0,0,0,1.22.56,1.58,1.58,0,0,0,1.37-.68c.25-.33.67-1.18.67-3.27v-14c0-2.18-.42-3-.67-3.36a1.6,1.6,0,0,0-1.37-.69,1.51,1.51,0,0,0-1.28.69,5.23,5.23,0,0,0-.67,3.17v3.42l-2.52-2.32c-5.67-5.23-13.16-7.89-22.27-7.89-7.71,0-14.43,2-20,5.91A17.89,17.89,0,0,0,561,137a19,19,0,0,0,2.9,10.12,17.94,17.94,0,0,0,8.07,7c3.57,1.62,9.64,3,18,4,8.78,1.06,15.61,3.21,20.29,6.39,4.86,3.34,7.32,7.85,7.32,13.42,0,4.83-2.38,9.44-7.08,13.68S598.8,198,589.46,198a36.71,36.71,0,0,1-16.09-3.22,23,23,0,0,1-9.8-8.31,15.42,15.42,0,0,1-2.11-8.29,3.47,3.47,0,0,0-.68-2.3,1.68,1.68,0,0,0-1.36-.68,1.49,1.49,0,0,0-1.31.66c-.24.33-.65,1.19-.65,3.29V196c0,2.09.42,2.94.67,3.26a1.5,1.5,0,0,0,1.29.69,1.52,1.52,0,0,0,1-.36,1.92,1.92,0,0,0,.7-1,15,15,0,0,0,.25-3.8Z"/><path class="cls-2" d="M674.26,117.07h37.53a4.6,4.6,0,0,1,3.54,1.17,4.3,4.3,0,0,1,1.07,3,4.17,4.17,0,0,1-1.07,2.92,4.6,4.6,0,0,1-3.54,1.17H674.26v54.46a16.05,16.05,0,0,0,4.82,11.88q4.81,4.78,14.11,4.78A52.13,52.13,0,0,0,708.34,194a46.47,46.47,0,0,0,12.67-5.6,5,5,0,0,1,2.72-1.27,2.92,2.92,0,0,1,2.3,1.22,4.42,4.42,0,0,1,1,2.88,4.15,4.15,0,0,1-1.07,2.72q-2.64,3.23-12.8,7a56.18,56.18,0,0,1-19.46,3.75q-12.11,0-19.26-6.72t-7.16-18.12V125.35H654.51a4.6,4.6,0,0,1-3.54-1.17,4.32,4.32,0,0,1-1.07-3,4.17,4.17,0,0,1,1.07-2.92,4.6,4.6,0,0,1,3.54-1.17h12.76V92.91a7,7,0,0,1,1-4.19,3,3,0,0,1,2.47-1.27,3.07,3.07,0,0,1,2.55,1.27,6.88,6.88,0,0,1,1,4.19Z"/><path class="cls-2" d="M693.69,206.15c-8.43,0-15.25-2.4-20.29-7.13s-7.63-11.22-7.63-19.21v-53H654.51a6,6,0,0,1-4.65-1.66,5.77,5.77,0,0,1-1.46-4,5.65,5.65,0,0,1,1.46-3.94,6,6,0,0,1,4.65-1.65h11.26V92.91c0-2.32.42-4,1.3-5.11A4.51,4.51,0,0,1,670.72,86a4.64,4.64,0,0,1,3.74,1.84,8.2,8.2,0,0,1,1.3,5.12v22.66h36a6,6,0,0,1,4.65,1.65,5.78,5.78,0,0,1,1.46,4,5.64,5.64,0,0,1-1.46,3.93,6,6,0,0,1-4.65,1.66h-36v53a14.51,14.51,0,0,0,4.37,10.82c2.91,2.88,7.3,4.34,13.06,4.34a51,51,0,0,0,14.71-2.42,45.41,45.41,0,0,0,12.26-5.41,6.16,6.16,0,0,1,3.57-1.53,4.38,4.38,0,0,1,3.47,1.78,5.92,5.92,0,0,1,1.32,3.81,5.61,5.61,0,0,1-1.43,3.7c-1.93,2.36-6.33,4.79-13.42,7.41A57.94,57.94,0,0,1,693.69,206.15Zm-39.18-87.58a3.5,3.5,0,0,0-2.43.68,2.62,2.62,0,0,0-.68,1.91,2.83,2.83,0,0,0,.68,2,3.5,3.5,0,0,0,2.43.68h14.26v56c0,7.23,2.18,12.8,6.68,17s10.6,6.32,18.24,6.32a54.89,54.89,0,0,0,18.94-3.66c8.08-3,11.07-5.18,12.16-6.51a2.71,2.71,0,0,0,.73-1.78,3,3,0,0,0-.65-1.92,1.42,1.42,0,0,0-1.14-.67c-.1,0-.62,0-1.8,1a48.61,48.61,0,0,1-13.16,5.85A53.88,53.88,0,0,1,693.19,198c-6.58,0-11.68-1.76-15.17-5.21a17.58,17.58,0,0,1-5.26-12.95v-56h39a3.5,3.5,0,0,0,2.43-.68,2.65,2.65,0,0,0,.68-1.91,2.81,2.81,0,0,0-.68-2,3.5,3.5,0,0,0-2.43-.68h-39V92.91c0-2.1-.42-3-.67-3.27a1.6,1.6,0,0,0-1.37-.69,1.5,1.5,0,0,0-1.28.69c-.25.32-.67,1.17-.67,3.27v25.66Z"/><path class="cls-2" d="M779.15,117.07v20.65q13.5-14.41,20.2-18.56T811.74,115q6.18,0,11.48,4.92t5.31,7.45a4.56,4.56,0,0,1-1,3.07,3.22,3.22,0,0,1-2.59,1.22,2.67,2.67,0,0,1-1.4-.34,12.68,12.68,0,0,1-2.14-2.19,22,22,0,0,0-5-4.68,8.27,8.27,0,0,0-4.2-1.26q-4.53,0-10.9,4.28t-22.1,21v44.81h30.62a4.9,4.9,0,0,1,3.62,1.12,4.15,4.15,0,0,1,1.07,3,4.2,4.2,0,0,1-1.07,2.93,4.78,4.78,0,0,1-3.62,1.16H755.53a4.71,4.71,0,0,1-3.54-1.12,4.33,4.33,0,0,1,0-5.65,4.73,4.73,0,0,1,3.58-1.12h16.71V125.35H759.48a4.6,4.6,0,0,1-3.54-1.17,4.73,4.73,0,0,1,0-5.94,4.58,4.58,0,0,1,3.58-1.17Z"/><path class="cls-2" d="M809.77,202.93H755.53a6.16,6.16,0,0,1-4.63-1.58,5.84,5.84,0,0,1-.06-7.7,6.11,6.11,0,0,1,4.69-1.61h15.21V126.85H759.48a6,6,0,0,1-4.65-1.66,6.24,6.24,0,0,1-.06-8c1-1.11,2.56-1.67,4.71-1.67h21.17V134c7.86-8.21,13.73-13.48,17.92-16.06,4.69-2.9,9.12-4.37,13.17-4.37,4.49,0,8.69,1.79,12.5,5.32s5.79,6.38,5.79,8.55a6.06,6.06,0,0,1-1.38,4,4.79,4.79,0,0,1-3.74,1.75,4.27,4.27,0,0,1-2.17-.55,11.71,11.71,0,0,1-2.52-2.52,20.78,20.78,0,0,0-4.63-4.35,6.85,6.85,0,0,0-3.44-1.06c-2.7,0-6.08,1.36-10.07,4s-11.29,9.57-21.43,20.29v42.72h29.12a6.26,6.26,0,0,1,4.7,1.58,6.08,6.08,0,0,1,0,7.95A6.11,6.11,0,0,1,809.77,202.93ZM755.53,195a3.57,3.57,0,0,0-2.48.64,2.45,2.45,0,0,0-.63,1.76,2.52,2.52,0,0,0,.65,1.84,3.49,3.49,0,0,0,2.46.65h54.24a3.47,3.47,0,0,0,2.51-.68,3.09,3.09,0,0,0,0-3.84,3.62,3.62,0,0,0-2.53-.66H777.65V147.84l.41-.43c10.65-11.29,18-18.22,22.35-21.16,4.55-3.06,8.39-4.55,11.74-4.55a9.7,9.7,0,0,1,5,1.48,22.85,22.85,0,0,1,5.41,5,11.84,11.84,0,0,0,1.76,1.87,1.21,1.21,0,0,0,.63.13,1.75,1.75,0,0,0,1.45-.69,3.11,3.11,0,0,0,.67-2.1c0-.56-.47-2.31-4.83-6.35-3.28-3-6.7-4.52-10.46-4.52-3.48,0-7.39,1.32-11.6,3.92s-11,8.84-19.9,18.31l-2.59,2.77v-23H759.48a3.42,3.42,0,0,0-2.46.66,2.79,2.79,0,0,0-.65,1.93,2.83,2.83,0,0,0,.68,2,3.5,3.5,0,0,0,2.43.68h14.26V195Z"/><path class="cls-2" d="M925,159.45q0,18.7-11.31,32t-27.29,13.25q-16.12,0-27.4-13.3t-11.28-31.9q0-18.7,11.28-32t27.4-13.3q16,0,27.29,13.25T925,159.45Zm-7,0q0-15.4-9.26-26.21t-22.43-10.81q-13.17,0-22.43,10.86t-9.26,26.16q0,15.2,9.26,26.1t22.43,10.92q13.17,0,22.43-10.87T918,159.45Z"/><path class="cls-2" d="M886.42,206.15c-11.16,0-20.77-4.65-28.55-13.83s-11.63-20.16-11.63-32.88,3.91-23.87,11.63-33,17.39-13.83,28.55-13.83,20.62,4.64,28.43,13.78,11.67,20.18,11.67,33-3.92,23.86-11.67,32.93S897.48,206.15,886.42,206.15Zm0-90.51c-10.24,0-19.08,4.3-26.26,12.77s-10.92,19-10.92,31,3.67,22.4,10.92,30.94,16,12.77,26.26,12.77,18.94-4.28,26.15-12.72,10.95-18.94,10.95-31-3.68-22.56-10.95-31.07S896.56,115.64,886.42,115.64ZM886.34,198c-9.2,0-17.13-3.85-23.57-11.45a40.63,40.63,0,0,1-9.62-27.08c0-10.51,3.24-19.64,9.62-27.12s14.37-11.39,23.57-11.39,17.13,3.81,23.57,11.33,9.62,16.6,9.62,27.18-3.24,19.65-9.62,27.14S895.54,198,886.34,198Zm0-74c-8.39,0-15.36,3.38-21.29,10.33s-8.9,15.4-8.9,25.18a37.73,37.73,0,0,0,8.91,25.14C871,191.57,878,195,886.34,195s15.36-3.39,21.29-10.34,8.9-15.4,8.9-25.19-3-18.33-8.9-25.23S894.74,123.93,886.34,123.93Z"/><path class="cls-2" d="M362.07,394.25V296.63h-9.3a4.71,4.71,0,0,1-3.54-1.12,4.66,4.66,0,0,1,0-5.94,4.75,4.75,0,0,1,3.54-1.12h43.46q12.91,0,21,8.82a29.62,29.62,0,0,1,8.1,20.7q0,15-13.58,24.26,10.79,4.57,15.8,12.18a29.72,29.72,0,0,1,5,16.75,33.7,33.7,0,0,1-3.29,15,30.15,30.15,0,0,1-10.08,11.54,25.18,25.18,0,0,1-14.77,4.77H352.77a4.64,4.64,0,0,1-3.54-1.16,4.2,4.2,0,0,1-1.07-2.93,4.15,4.15,0,0,1,1.07-3,4.75,4.75,0,0,1,3.54-1.12ZM369,339.11h24.45a30.42,30.42,0,0,0,14.32-3.41,19.18,19.18,0,0,0,7.82-7.89,21.91,21.91,0,0,0,2.8-10.52q0-7.69-6.09-14.18t-15.89-6.48H369Zm0,55.14h35a19.51,19.51,0,0,0,11.61-3.51,23,23,0,0,0,7.49-8.67,23.89,23.89,0,0,0,2.55-10.71A22.44,22.44,0,0,0,422,359.28a23.26,23.26,0,0,0-10.17-8.87q-6.5-3-17.94-3H369Z"/><path class="cls-2" d="M404.46,403.93H352.77a6,6,0,0,1-4.65-1.65,6.1,6.1,0,0,1,0-7.94,6.14,6.14,0,0,1,4.63-1.59h7.8V298.13h-7.8a6.16,6.16,0,0,1-4.63-1.58,6.16,6.16,0,0,1,0-8,6.14,6.14,0,0,1,4.63-1.59h43.46c9,0,16.45,3.13,22.13,9.3a31.21,31.21,0,0,1,8.5,21.72c0,9.67-4.07,17.71-12.11,24,6.24,3,11,6.94,14.09,11.65a31.41,31.41,0,0,1,5.26,17.58,35.31,35.31,0,0,1-3.44,15.61,31.84,31.84,0,0,1-10.57,12.12A26.71,26.71,0,0,1,404.46,403.93Zm-51.69-8.18a3.48,3.48,0,0,0-2.46.66,3.1,3.1,0,0,0,0,3.84,3.45,3.45,0,0,0,2.43.68h51.69a23.78,23.78,0,0,0,13.91-4.5,28.82,28.82,0,0,0,9.59-11,32.35,32.35,0,0,0,3.14-14.3,28.4,28.4,0,0,0-4.77-15.93c-3.16-4.79-8.26-8.7-15.13-11.62l-2.53-1.08,2.27-1.54c8.7-5.93,12.92-13.46,12.92-23a28.27,28.27,0,0,0-7.71-19.69c-5.16-5.6-11.67-8.33-19.92-8.33H352.77a3.48,3.48,0,0,0-2.46.66,3.21,3.21,0,0,0,0,3.87,3.49,3.49,0,0,0,2.46.65h10.8V395.75Zm51.19,0H367.48V345.89h26.36c7.81,0,14.06,1.06,18.57,3.16a24.83,24.83,0,0,1,10.81,9.43,24,24,0,0,1,3.89,12.88,25.49,25.49,0,0,1-2.71,11.38,24.69,24.69,0,0,1-8,9.23A21.11,21.11,0,0,1,404,395.75Zm-33.48-3H404a18.17,18.17,0,0,0,10.74-3.23,21.68,21.68,0,0,0,7-8.11,22.54,22.54,0,0,0,2.4-10.05,21.19,21.19,0,0,0-3.43-11.29,21.91,21.91,0,0,0-9.53-8.3c-4.12-1.91-9.94-2.88-17.31-2.88H370.48Zm22.95-52.14H367.48V295.13h28.91c6.93,0,12.64,2.34,17,7s6.5,9.7,6.5,15.2a23.46,23.46,0,0,1-3,11.23,20.71,20.71,0,0,1-8.42,8.5A32.1,32.1,0,0,1,393.43,340.61Zm-22.95-3h22.95a29,29,0,0,0,13.62-3.24,17.72,17.72,0,0,0,7.2-7.28,20.4,20.4,0,0,0,2.62-9.8c0-4.71-1.92-9.14-5.69-13.15s-8.64-6-14.79-6H370.48Z"/><path class="cls-2" d="M510.41,402.43V390.65q-15.06,15-32.18,15-12.42,0-19.42-7.45a25.68,25.68,0,0,1-7-18.27q0-11.88,9.22-20.75t26.91-8.87a81.65,81.65,0,0,1,10.37.73,120,120,0,0,1,12.1,2.29V340.08a15.58,15.58,0,0,0-5.26-11.69q-5.28-5-15.81-5-8.05,0-22.63,5.55a13.71,13.71,0,0,1-3.37,1,2.84,2.84,0,0,1-2.27-1.17,4.49,4.49,0,0,1-.94-2.92,3.94,3.94,0,0,1,.82-2.63q1.16-1.46,9.3-4,12.84-4.1,19.42-4.1,13.09,0,20.41,7.65t7.33,17.29v54.17h9.22a4.88,4.88,0,0,1,3.62,1.12,4.15,4.15,0,0,1,1.07,3,4.2,4.2,0,0,1-1.07,2.93,4.76,4.76,0,0,1-3.62,1.16Zm0-40.72a57,57,0,0,0-10.28-2.43,80.67,80.67,0,0,0-11.45-.78q-15.06,0-23.53,7.69a17.86,17.86,0,0,0-6.42,13.74,17.26,17.26,0,0,0,4.89,12.47q4.9,5.07,14.28,5.07a34.07,34.07,0,0,0,16.67-4.24q7.69-4.25,15.84-13.49Z"/><path class="cls-2" d="M478.23,407.15c-8.68,0-15.58-2.67-20.52-7.93a27.25,27.25,0,0,1-7.4-19.29c0-8.31,3.26-15.66,9.68-21.83s15.81-9.29,27.95-9.29a81.35,81.35,0,0,1,10.57.75c3.22.42,6.71,1.05,10.4,1.88V340.08a14.05,14.05,0,0,0-4.79-10.6c-3.21-3-8.18-4.55-14.78-4.55-5.17,0-12.6,1.83-22.1,5.45a12.26,12.26,0,0,1-3.9,1.07,4.3,4.3,0,0,1-3.43-1.72,6,6,0,0,1-1.28-3.87,5.43,5.43,0,0,1,1.17-3.6c.68-.86,2.43-2.1,10-4.46,8.78-2.79,15.29-4.16,19.87-4.16,9.11,0,16.34,2.73,21.5,8.11s7.74,11.54,7.74,18.33v52.67h7.72a6.26,6.26,0,0,1,4.7,1.58,5.6,5.6,0,0,1,1.49,4,5.67,5.67,0,0,1-1.46,3.94,6.15,6.15,0,0,1-4.73,1.65H508.91v-9.79C499.34,402.77,489,407.15,478.23,407.15Zm9.71-55.34c-11.34,0-20,2.84-25.87,8.45s-8.76,12.21-8.76,19.67a24.37,24.37,0,0,0,6.59,17.24c4.35,4.63,10.52,7,18.33,7,10.95,0,21.42-4.9,31.12-14.57l2.56-2.55v13.9h14.72a3.47,3.47,0,0,0,2.51-.68,3.1,3.1,0,0,0,0-3.85,3.68,3.68,0,0,0-2.53-.65H515.91V340.08c0-6-2.32-11.46-6.91-16.25s-11.07-7.19-19.33-7.19c-4.21,0-10.59,1.36-19,4-7.31,2.28-8.42,3.31-8.57,3.5a2.52,2.52,0,0,0-.5,1.7,3,3,0,0,0,.61,2,1.33,1.33,0,0,0,1.1.61,13.7,13.7,0,0,0,2.85-.88c9.82-3.74,17.62-5.64,23.15-5.64,7.39,0,13.05,1.8,16.84,5.37a17.09,17.09,0,0,1,5.73,12.78v15.15l-1.85-.44a118.91,118.91,0,0,0-11.94-2.26A80.67,80.67,0,0,0,487.94,351.81ZM477.9,399c-6.65,0-11.81-1.86-15.36-5.53a18.81,18.81,0,0,1-5.31-13.51,19.34,19.34,0,0,1,6.91-14.85c5.91-5.36,14.17-8.08,24.54-8.08a82.17,82.17,0,0,1,11.66.79,58.58,58.58,0,0,1,10.56,2.5l1,.35V380.3l-.37.43c-5.52,6.27-11,10.92-16.25,13.81A35.58,35.58,0,0,1,477.9,399Zm10.78-39c-9.61,0-17.19,2.45-22.53,7.3a16.28,16.28,0,0,0-5.92,12.63,15.69,15.69,0,0,0,4.47,11.43c3,3.06,7.4,4.61,13.2,4.61a32.7,32.7,0,0,0,16-4.06c4.83-2.66,9.9-7,15.06-12.74V362.8a56.27,56.27,0,0,0-9-2A79.17,79.17,0,0,0,488.68,360Z"/><path class="cls-2" d="M563.45,280.17v54.26q12.51-19.29,30.2-19.29,15.15,0,25.93,13t10.78,31.91q0,19.1-10.9,32.34t-25.81,13.25q-18.1,0-30.2-19.29v16.07H547.24a4.64,4.64,0,0,1-3.54-1.16,4.15,4.15,0,0,1-1.07-2.93,4.1,4.1,0,0,1,1.07-3,4.75,4.75,0,0,1,3.54-1.12h9.3V288.45h-9.3a4.6,4.6,0,0,1-3.54-1.17,4.26,4.26,0,0,1-1.07-3,4.13,4.13,0,0,1,1.07-2.92,4.6,4.6,0,0,1,3.54-1.17Zm60,80.28q0-15.49-9-26.26t-21-10.76q-12,0-21,10.76t-9,26.26q0,15.48,9,26.25t21,10.77q12,0,21-10.77T623.45,360.45Z"/><path class="cls-2" d="M593.65,407.15c-11.21,0-20.84-5.36-28.7-15.93v12.71H547.24a6,6,0,0,1-4.65-1.65,6.1,6.1,0,0,1,0-7.94,6.13,6.13,0,0,1,4.63-1.59H555V290h-7.8a6,6,0,0,1-4.65-1.66,5.75,5.75,0,0,1-1.46-4,5.67,5.67,0,0,1,1.46-3.94,6.05,6.05,0,0,1,4.65-1.65H565v51c8.06-10.65,17.7-16,28.7-16,10.52,0,19.63,4.56,27.09,13.55s11.12,20,11.12,32.87-3.78,24.23-11.24,33.29S604,407.15,593.65,407.15Zm-31.7-26,2.77,4.41c7.74,12.34,17.47,18.59,28.93,18.59,9.42,0,17.71-4.27,24.65-12.7s10.56-19.08,10.56-31.39-3.51-22.6-10.43-30.95-15.2-12.47-24.78-12.47c-11.2,0-20.94,6.26-28.94,18.61L562,339.5V281.67H547.24a3.55,3.55,0,0,0-2.44.68,2.67,2.67,0,0,0-.67,1.91,2.86,2.86,0,0,0,.67,2,3.55,3.55,0,0,0,2.44.68H558v108.8h-10.8a3.48,3.48,0,0,0-2.46.66,3.12,3.12,0,0,0,0,3.84,3.5,3.5,0,0,0,2.44.68H562ZM593.49,399c-8.44,0-15.89-3.81-22.14-11.31S562,371.09,562,360.44s3.14-19.79,9.32-27.21,13.7-11.3,22.14-11.3,15.89,3.8,22.14,11.3S625,349.81,625,360.44s-3.14,19.8-9.32,27.22S601.93,399,593.49,399Zm0-74c-7.61,0-14.1,3.34-19.84,10.22S565,350.53,565,360.44s2.9,18.44,8.62,25.3S585.88,396,593.49,396s14.1-3.35,19.84-10.23,8.62-15.38,8.62-25.3-2.9-18.42-8.62-25.29S601.1,324.93,593.49,324.93Z"/><path class="cls-2" d="M712.12,402.43v-12q-14.16,15.19-30.61,15.2-10.12,0-15.4-6.53a31.12,31.12,0,0,1-6.83-20v-52.8H650a4.63,4.63,0,0,1-3.54-1.17,4.32,4.32,0,0,1-1.07-3,4.17,4.17,0,0,1,1.07-2.92,4.63,4.63,0,0,1,3.54-1.17H666.2v61.08q0,8,4.28,13.15a13.32,13.32,0,0,0,10.7,5.17q16.86,0,30.94-18.32v-52.8H699.36a4.59,4.59,0,0,1-3.53-1.17,4.28,4.28,0,0,1-1.07-3,4.13,4.13,0,0,1,1.07-2.92,4.59,4.59,0,0,1,3.53-1.17H719v76.18h5.84a4.78,4.78,0,0,1,3.54,1.12,4.15,4.15,0,0,1,1.07,3,4.2,4.2,0,0,1-1.07,2.93,4.67,4.67,0,0,1-3.54,1.16Z"/><path class="cls-2" d="M681.51,407.15c-7.2,0-12.77-2.38-16.56-7.09a32.66,32.66,0,0,1-7.17-20.91v-51.3H650a6,6,0,0,1-4.64-1.66,5.73,5.73,0,0,1-1.47-4,5.61,5.61,0,0,1,1.47-3.94,6,6,0,0,1,4.64-1.65H667.7v62.58c0,4.94,1.32,9.05,3.93,12.2a11.84,11.84,0,0,0,9.55,4.62c10.58,0,20.48-5.83,29.44-17.33V327.85H699.36a6,6,0,0,1-4.64-1.66,5.77,5.77,0,0,1-1.46-4,5.65,5.65,0,0,1,1.46-3.94,6,6,0,0,1,4.64-1.65h21.18v76.18h4.34a6.14,6.14,0,0,1,4.62,1.58,6.09,6.09,0,0,1,0,7.95,6,6,0,0,1-4.65,1.65H710.62v-9.81C701.64,402.77,691.85,407.15,681.51,407.15ZM650,319.57a3.52,3.52,0,0,0-2.43.68,2.68,2.68,0,0,0-.68,1.91,2.83,2.83,0,0,0,.68,2,3.52,3.52,0,0,0,2.43.68h10.8v54.3a29.77,29.77,0,0,0,6.51,19c3.23,4,7.89,6,14.22,6,10.48,0,20.42-4.95,29.51-14.72l2.6-2.79v14.29h11.26a3.47,3.47,0,0,0,2.43-.68,2.66,2.66,0,0,0,.68-1.91,2.7,2.7,0,0,0-.66-1.94,3.53,3.53,0,0,0-2.45-.65h-7.34V319.57H699.36a3.53,3.53,0,0,0-2.43.68,2.72,2.72,0,0,0-.67,1.91,2.87,2.87,0,0,0,.67,2,3.53,3.53,0,0,0,2.43.68h14.26v54.81l-.31.4C703.68,392.61,692.86,399,681.18,399a14.82,14.82,0,0,1-11.86-5.71c-3.07-3.7-4.62-8.45-4.62-14.11V319.57Z"/><path class="cls-2" d="M810.26,323.43a6.71,6.71,0,0,1,1-4.1,3,3,0,0,1,2.47-1.26,3.1,3.1,0,0,1,2.55,1.26,7.13,7.13,0,0,1,1,4.29v14a6.88,6.88,0,0,1-1,4.19,3.1,3.1,0,0,1-2.55,1.26,3,3,0,0,1-2.35-1.07,5.86,5.86,0,0,1-1.11-3.5,13.54,13.54,0,0,0-5.1-9.65q-6.75-5.46-17.86-5.45-11.61,0-18,5.55-4.86,4.18-4.85,9.35,0,5.85,5.76,9.74,3.95,2.73,15,4.19,14.4,1.86,20,4.19,8,3.42,11.89,9.45A23.56,23.56,0,0,1,821,379q0,10.43-8.48,18.55t-24.85,8.14q-16.38,0-26.84-9.84a17.66,17.66,0,0,1-.32,4.29,3.47,3.47,0,0,1-1.2,1.65,3.06,3.06,0,0,1-4.4-.58,6.88,6.88,0,0,1-1-4.19V380.13a7.13,7.13,0,0,1,1-4.19,3,3,0,0,1,2.51-1.27,3.18,3.18,0,0,1,2.51,1.22,4.92,4.92,0,0,1,1,3.26,13.87,13.87,0,0,0,1.89,7.5A21.37,21.37,0,0,0,772,394.4q6.28,3.06,15.43,3.07,13.5,0,20.08-6T814.05,379q0-7.6-6.67-12.18t-19.63-6.14q-12.88-1.56-18.48-4.09a19.35,19.35,0,0,1-8.72-7.6A20.35,20.35,0,0,1,757.42,338a19.47,19.47,0,0,1,8.72-16.71q8.73-6.18,20.83-6.19Q801.28,315.14,810.26,323.43Z"/><path class="cls-2" d="M787.63,407.15c-10,0-18.6-2.75-25.45-8.16a6.92,6.92,0,0,1-.29,1.58,5,5,0,0,1-1.69,2.36,4.57,4.57,0,0,1-6.52-.84,8.23,8.23,0,0,1-1.3-5.11V380.12a8.37,8.37,0,0,1,1.25-5.08,4.45,4.45,0,0,1,3.71-1.87,4.66,4.66,0,0,1,3.65,1.75,6.36,6.36,0,0,1,1.39,4.23,12.52,12.52,0,0,0,1.66,6.71,20.1,20.1,0,0,0,8.56,7.19A33.82,33.82,0,0,0,787.38,396c8.57,0,15-1.87,19.08-5.56s6.09-7.5,6.09-11.45c0-4.59-2-8.16-6-10.95-4.27-2.89-10.65-4.87-19-5.88-8.82-1.07-15-2.45-18.92-4.22a20.92,20.92,0,0,1-9.38-8.17,22,22,0,0,1-3.35-11.7,21,21,0,0,1,9.36-17.93c6-4.29,13.34-6.47,21.69-6.47,8.77,0,16.2,2.3,22.12,6.84a5.67,5.67,0,0,1,1-2.07,4.53,4.53,0,0,1,3.66-1.84,4.58,4.58,0,0,1,3.73,1.84c.88,1.13,1.31,2.83,1.31,5.21v14a8.16,8.16,0,0,1-1.31,5.11,4.58,4.58,0,0,1-3.73,1.84,4.49,4.49,0,0,1-3.47-1.58,7.15,7.15,0,0,1-1.49-4.39A11.91,11.91,0,0,0,804.2,330c-4.19-3.39-9.88-5.11-16.9-5.11-7.33,0-13.07,1.74-17,5.18-2.92,2.52-4.33,5.21-4.33,8.22,0,3.4,1.67,6.18,5.1,8.5,2.43,1.68,7.25,3,14.33,3.94,9.83,1.27,16.5,2.67,20.38,4.3a27.15,27.15,0,0,1,12.58,10A25.17,25.17,0,0,1,822.46,379c0,7.34-3,14-8.94,19.64S798.89,407.15,787.63,407.15Zm-28.34-14.81,2.53,2.38c6.65,6.26,15.33,9.43,25.81,9.43s18.48-2.6,23.81-7.72,8-11,8-17.47a22.24,22.24,0,0,0-3.67-12.24,24.27,24.27,0,0,0-11.22-8.89c-3.58-1.49-10.18-2.87-19.6-4.08-7.67-1-12.79-2.47-15.65-4.44-4.24-2.87-6.4-6.57-6.4-11,0-3.88,1.8-7.41,5.37-10.49,4.54-3.92,10.93-5.91,19-5.91,7.72,0,14.05,1.94,18.8,5.78a15.1,15.1,0,0,1,5.66,10.69,4.52,4.52,0,0,0,.73,2.64,1.54,1.54,0,0,0,1.23.56,1.57,1.57,0,0,0,1.36-.68c.26-.33.68-1.18.68-3.27v-14c0-2.18-.42-3-.68-3.36a1.59,1.59,0,0,0-1.36-.69,1.51,1.51,0,0,0-1.29.69,5.19,5.19,0,0,0-.67,3.17v3.42l-2.52-2.32c-5.67-5.23-13.16-7.89-22.27-7.89-7.71,0-14.43,2-20,5.91A17.92,17.92,0,0,0,758.92,338a19,19,0,0,0,2.9,10.12,18,18,0,0,0,8.07,7c3.58,1.62,9.65,3,18,4,8.79,1.07,15.61,3.21,20.29,6.39,4.86,3.34,7.33,7.85,7.33,13.42,0,4.83-2.39,9.44-7.08,13.68S796.72,399,787.38,399a36.74,36.74,0,0,1-16.09-3.22,23,23,0,0,1-9.8-8.31,15.42,15.42,0,0,1-2.11-8.29,3.41,3.41,0,0,0-.68-2.3,1.68,1.68,0,0,0-1.36-.68,1.5,1.5,0,0,0-1.31.66c-.24.33-.65,1.19-.65,3.29V397c0,2.09.42,2.94.67,3.26a1.5,1.5,0,0,0,1.29.69,1.56,1.56,0,0,0,1-.35,2.08,2.08,0,0,0,.71-1,16.13,16.13,0,0,0,.24-3.8Z"/><path class="cls-2" d="M863.63,280.17v50.37q6.57-8.48,12.63-11.94a26.82,26.82,0,0,1,13.54-3.46,24.18,24.18,0,0,1,23.13,13.69,30.32,30.32,0,0,1,3.78,14.66v50.76h7.74a4.75,4.75,0,0,1,3.58,1.12,4.26,4.26,0,0,1,1,3,4.31,4.31,0,0,1-1,2.93,4.63,4.63,0,0,1-3.58,1.16H902a4.76,4.76,0,0,1-3.62-1.16,4.15,4.15,0,0,1-1.07-2.93,4.1,4.1,0,0,1,1.07-3,4.88,4.88,0,0,1,3.62-1.12h7.74V344.08a21.2,21.2,0,0,0-5.4-14.81q-5.39-5.94-15-5.94a19.76,19.76,0,0,0-12.92,4.38q-3.87,3.12-12.75,14.71v51.83h7.81a4.75,4.75,0,0,1,3.54,1.12,4.1,4.1,0,0,1,1.07,3,4.15,4.15,0,0,1-1.07,2.93,4.64,4.64,0,0,1-3.54,1.16H848.89a4.67,4.67,0,0,1-3.54-1.16,4.2,4.2,0,0,1-1.07-2.93,4.15,4.15,0,0,1,1.07-3,4.78,4.78,0,0,1,3.54-1.12h7.82V288.45h-9.3a4.6,4.6,0,0,1-3.54-1.17,4.3,4.3,0,0,1-1.07-3,4.17,4.17,0,0,1,1.07-2.92,4.6,4.6,0,0,1,3.54-1.17Z"/><path class="cls-2" d="M924.45,403.93H902a6.15,6.15,0,0,1-4.73-1.65,6.1,6.1,0,0,1,0-7.94,6.25,6.25,0,0,1,4.71-1.59h6.24V344.08a19.85,19.85,0,0,0-5-13.8c-3.32-3.67-7.87-5.45-13.91-5.45a18.4,18.4,0,0,0-12,4c-2.44,2-6.54,6.69-12.2,14.06v49.82h6.31a6.16,6.16,0,0,1,4.63,1.58,6.11,6.11,0,0,1,0,7.95,6,6,0,0,1-4.65,1.65H848.89a6,6,0,0,1-4.64-1.65,5.66,5.66,0,0,1-1.47-3.94,5.56,5.56,0,0,1,1.49-4,6.1,6.1,0,0,1,4.62-1.59h6.32V290h-7.8a6,6,0,0,1-4.65-1.66,5.75,5.75,0,0,1-1.46-4,5.63,5.63,0,0,1,1.46-3.93,6,6,0,0,1,4.65-1.66h17.72v47.67a42.12,42.12,0,0,1,10.38-9,28.41,28.41,0,0,1,14.29-3.66,25.64,25.64,0,0,1,24.44,14.47,31.87,31.87,0,0,1,4,15.38v49.26h6.24a6.12,6.12,0,0,1,4.68,1.6,6.22,6.22,0,0,1,0,7.91C928.17,403.37,926.59,403.93,924.45,403.93ZM902,395.75a3.67,3.67,0,0,0-2.54.66,3.12,3.12,0,0,0,0,3.84,3.49,3.49,0,0,0,2.52.68h22.47a3.37,3.37,0,0,0,2.45-.66,3.23,3.23,0,0,0,0-3.89,3.58,3.58,0,0,0-2.47-.63h-9.24V343.49a28.93,28.93,0,0,0-3.6-13.94,22.66,22.66,0,0,0-21.81-12.91,25.39,25.39,0,0,0-12.8,3.27c-3.84,2.19-7.94,6.08-12.19,11.55l-2.68,3.45V281.67H847.41a3.52,3.52,0,0,0-2.43.68,2.68,2.68,0,0,0-.68,1.91,2.83,2.83,0,0,0,.68,2,3.52,3.52,0,0,0,2.43.68h10.8v108.8h-9.32a3.47,3.47,0,0,0-2.45.66,3.09,3.09,0,0,0,0,3.84,3.47,3.47,0,0,0,2.43.68h22.55a3.5,3.5,0,0,0,2.44-.68,2.72,2.72,0,0,0,.67-1.91,2.65,2.65,0,0,0-.65-1.93,3.48,3.48,0,0,0-2.46-.66h-9.31V341.91l.3-.4c6.06-7.9,10.32-12.79,13-15a21.3,21.3,0,0,1,13.86-4.71c6.83,0,12.26,2.16,16.13,6.43a22.76,22.76,0,0,1,5.79,15.82v51.67Z"/><path class="cls-2" d="M971.31,366v36.43H955.1a4.64,4.64,0,0,1-3.54-1.16,4.15,4.15,0,0,1-1.07-2.93,4.1,4.1,0,0,1,1.07-3,4.75,4.75,0,0,1,3.54-1.12h9.3V288.45h-9.3a4.6,4.6,0,0,1-3.54-1.17,4.26,4.26,0,0,1-1.07-3,4.13,4.13,0,0,1,1.07-2.92,4.6,4.6,0,0,1,3.54-1.17h16.21v75.4l29.38-29.22h-3.54a4.63,4.63,0,0,1-3.54-1.17,4.17,4.17,0,0,1-1.06-2.92,4.3,4.3,0,0,1,1.06-3,4.63,4.63,0,0,1,3.54-1.17h22.14a4.76,4.76,0,0,1,3.63,1.17,4.3,4.3,0,0,1,1.07,3,4.17,4.17,0,0,1-1.07,2.92,4.76,4.76,0,0,1-3.63,1.17h-8l-27,26.69,34.16,41.21h8a4.93,4.93,0,0,1,3.63,1.12,4.15,4.15,0,0,1,1.07,3,4.2,4.2,0,0,1-1.07,2.93,4.8,4.8,0,0,1-3.63,1.16h-22.38a4.64,4.64,0,0,1-3.54-1.16,4.15,4.15,0,0,1-1.07-2.93,4.1,4.1,0,0,1,1.07-3,4.75,4.75,0,0,1,3.54-1.12h4.85l-29.71-36.14Z"/><path class="cls-2" d="M1026.45,403.93h-22.38a6,6,0,0,1-4.65-1.65,6.1,6.1,0,0,1,0-7.94,6.13,6.13,0,0,1,4.63-1.59h1.68L979.1,360.34l-6.29,6.28v37.31H955.1a6,6,0,0,1-4.65-1.65,6.1,6.1,0,0,1,0-7.94,6.13,6.13,0,0,1,4.63-1.59h7.8V290h-7.8a6,6,0,0,1-4.65-1.66,5.75,5.75,0,0,1-1.46-4,5.67,5.67,0,0,1,1.46-3.94,6.07,6.07,0,0,1,4.65-1.65h17.71V352l24.25-24.12a6,6,0,0,1-4.55-1.66,5.63,5.63,0,0,1-1.46-3.93,5.78,5.78,0,0,1,1.46-4,6,6,0,0,1,4.64-1.65h22.14a6.15,6.15,0,0,1,4.73,1.65,5.8,5.8,0,0,1,1.47,4,5.65,5.65,0,0,1-1.47,3.93,6.15,6.15,0,0,1-4.73,1.66h-7.36l-25.58,25.29,32.83,39.61h7.27a6.29,6.29,0,0,1,4.71,1.58,6.08,6.08,0,0,1,0,7.95A6.13,6.13,0,0,1,1026.45,403.93Zm-22.38-8.18a3.48,3.48,0,0,0-2.46.66,2.65,2.65,0,0,0-.65,1.93,2.62,2.62,0,0,0,.68,1.91,3.45,3.45,0,0,0,2.43.68h22.38a3.49,3.49,0,0,0,2.52-.68,2.72,2.72,0,0,0,.68-1.91,2.66,2.66,0,0,0-.66-1.93,3.66,3.66,0,0,0-2.54-.66h-8.68l-35.49-42.81,28.41-28.09h8.6a3.48,3.48,0,0,0,2.52-.69,2.7,2.7,0,0,0,.68-1.9,2.86,2.86,0,0,0-.68-2,3.49,3.49,0,0,0-2.52-.68H997.15a3.53,3.53,0,0,0-2.43.68,2.86,2.86,0,0,0-.67,2,2.63,2.63,0,0,0,.67,1.9,3.49,3.49,0,0,0,2.43.69h7.18l-34.52,34.33V281.67H955.1a3.55,3.55,0,0,0-2.44.68,2.67,2.67,0,0,0-.67,1.91,2.87,2.87,0,0,0,.67,2,3.55,3.55,0,0,0,2.44.68h10.8v108.8H955.1a3.48,3.48,0,0,0-2.46.66,3.12,3.12,0,0,0,0,3.84,3.5,3.5,0,0,0,2.44.68h14.71V365.38l9.51-9.5,32.78,39.87Z"/><path class="cls-2" d="M1104.18,402.43V390.65q-15.06,15-32.18,15-12.43,0-19.42-7.45a25.68,25.68,0,0,1-7-18.27q0-11.88,9.22-20.75t26.91-8.87a81.77,81.77,0,0,1,10.37.73,120.51,120.51,0,0,1,12.1,2.29V340.08a15.59,15.59,0,0,0-5.27-11.69q-5.27-5-15.8-5-8.07,0-22.63,5.55a13.62,13.62,0,0,1-3.38,1,2.82,2.82,0,0,1-2.26-1.17,4.49,4.49,0,0,1-.95-2.92,4,4,0,0,1,.83-2.63q1.14-1.46,9.3-4,12.84-4.1,19.42-4.1,13.08,0,20.41,7.65t7.33,17.29v54.17h9.21a4.91,4.91,0,0,1,3.63,1.12,4.15,4.15,0,0,1,1.07,3,4.2,4.2,0,0,1-1.07,2.93,4.79,4.79,0,0,1-3.63,1.16Zm0-40.72a57.27,57.27,0,0,0-10.29-2.43,80.43,80.43,0,0,0-11.44-.78q-15.06,0-23.54,7.69a17.86,17.86,0,0,0-6.42,13.74,17.27,17.27,0,0,0,4.9,12.47q4.89,5.07,14.28,5.07a34.07,34.07,0,0,0,16.67-4.24q7.7-4.25,15.84-13.49Z"/><path class="cls-2" d="M1072,407.15c-8.68,0-15.58-2.67-20.52-7.93a27.25,27.25,0,0,1-7.4-19.29c0-8.31,3.26-15.66,9.68-21.83s15.81-9.29,28-9.29a81.47,81.47,0,0,1,10.57.75c3.21.42,6.71,1.05,10.4,1.88V340.08a14,14,0,0,0-4.8-10.6c-3.2-3-8.18-4.55-14.77-4.55-5.17,0-12.6,1.83-22.1,5.45a12.22,12.22,0,0,1-3.91,1.07,4.32,4.32,0,0,1-3.43-1.72,6,6,0,0,1-1.28-3.87,5.44,5.44,0,0,1,1.18-3.6c.68-.86,2.43-2.1,10-4.46,8.78-2.79,15.28-4.16,19.87-4.16,9.11,0,16.34,2.73,21.49,8.11s7.75,11.54,7.75,18.33v52.67h7.71a6.29,6.29,0,0,1,4.71,1.58,6.08,6.08,0,0,1,0,7.95,6.13,6.13,0,0,1-4.73,1.65h-17.71v-9.79C1093.11,402.77,1082.8,407.15,1072,407.15Zm9.71-55.34c-11.34,0-20,2.84-25.87,8.45s-8.76,12.21-8.76,19.67a24.37,24.37,0,0,0,6.59,17.24c4.35,4.63,10.51,7,18.33,7,11,0,21.42-4.9,31.12-14.57l2.56-2.55v13.9h14.71a3.49,3.49,0,0,0,2.52-.68,2.72,2.72,0,0,0,.68-1.91,2.66,2.66,0,0,0-.66-1.93,3.64,3.64,0,0,0-2.54-.66h-10.71V340.08c0-6.08-2.26-11.4-6.91-16.25s-11.07-7.19-19.33-7.19c-4.21,0-10.6,1.36-19,4-7.31,2.28-8.43,3.32-8.58,3.5a2.57,2.57,0,0,0-.5,1.7,3,3,0,0,0,.61,2,1.34,1.34,0,0,0,1.1.61,13.4,13.4,0,0,0,2.86-.88c10-3.8,17.54-5.64,23.15-5.64,7.39,0,13.05,1.8,16.83,5.37a17.08,17.08,0,0,1,5.74,12.78v15.15l-1.85-.44a119.44,119.44,0,0,0-11.94-2.26A80.79,80.79,0,0,0,1081.71,351.81Zm-10,47.16c-6.65,0-11.82-1.86-15.36-5.53a18.76,18.76,0,0,1-5.32-13.51,19.34,19.34,0,0,1,6.92-14.85c5.9-5.36,14.16-8.08,24.54-8.08a82.38,82.38,0,0,1,11.66.79,58.47,58.47,0,0,1,10.55,2.5l1,.35V380.3l-.37.43c-5.52,6.27-11,10.92-16.25,13.81A35.58,35.58,0,0,1,1071.67,399Zm10.78-39c-9.61,0-17.19,2.45-22.53,7.3-4,3.58-5.93,7.71-5.93,12.63a15.7,15.7,0,0,0,4.48,11.43c3,3.05,7.4,4.61,13.2,4.61a32.63,32.63,0,0,0,15.94-4.06c4.84-2.66,9.91-7,15.07-12.74V362.8a56.27,56.27,0,0,0-9-2A79.17,79.17,0,0,0,1082.45,360Z"/><path class="cls-3" d="M152.51,12.5c-14.55,0-40.28,1.2-63.29,19.64C55.57,59.1,55.14,92.82,55,104.89c-.24,25,7.13,26.14,4.36,48-2.86,22.61-11.77,29.64-26.19,63.29-8,18.76-15.7,36.64-18.91,56.75-1.14,7.11-7.57,51.05,13.82,88,23.65,40.88,75.55,63.3,131.67,59.66"/><path class="cls-3" d="M152.51,12.5c16,0,40,1.29,63,19.73,33.64,27,34.08,60.68,34.19,72.75.23,25-7.13,26.13-4.36,48,2.86,22.6,11.77,29.64,26.19,63.29,8,18.75,15.69,36.63,18.91,56.74,1.14,7.12,7.57,51.05-13.82,88C253,401.93,218,419.16,158.33,420.62"/><path class="cls-4" d="M153.18,373.87c-22.87-4.75-27.95-29.94-27-45.12,2-33.55,35.43-56.61,51-68.48A182.92,182.92,0,0,1,212,239.57c1.75,7.77,4,18.67,6.25,31.76,6.17,36.53,14.36,47.86,4.93,68.92C210.2,369.19,175.3,378.47,153.18,373.87Z"/><path class="cls-4" d="M172.59,372.25c-21.7,7.77-63-2.48-76.09-15.68-28.93-29.17-17.44-69.93-13.17-88.32C87,252.54,92.9,239.32,96.5,231c8.53,5.49,17.1,13.48,30.87,23.16,38.41,27,55.51,31.81,66.92,54.77C210,340.45,195.41,364.07,172.59,372.25Z"/><ellipse class="cls-1" cx="153.43" cy="91.32" rx="85.5" ry="90.5"/><path class="cls-1" d="M132.93,42.82c-10,11-4,21-4,21l29,7-10-61-2.28.57-21.72,5.43-17,44,4,63,57,30,10-20,22-38-22-85h-24l-8-9-23,45,27,31"/></g></g></svg>
